<?xml version="1.0" encoding="utf-8"?>
<!-- Generator: Adobe Illustrator 16.0.0, SVG Export Plug-In . SVG Version: 6.00 Build 0)  -->
<!DOCTYPE svg PUBLIC "-//W3C//DTD SVG 1.1//EN" "http://www.w3.org/Graphics/SVG/1.1/DTD/svg11.dtd">
<svg version="1.1" id="Ñëîé_1" xmlns="http://www.w3.org/2000/svg" xmlns:xlink="http://www.w3.org/1999/xlink" x="0px" y="0px"
	 width="1332.898px" height="1200.001px" viewBox="0 0 1332.898 1200.001" enable-background="new 0 0 1332.898 1200.001"
	 xml:space="preserve">
<g>
	<path fill="#D4ECFF" d="M1003.021,1064.771l-1.97-3.361l58.117-34.068c7.177-4.204,16.088-4.174,23.242,0.106l48.032,28.693
		l-2,3.346l-48.031-28.701c-5.931-3.543-13.321-3.573-19.274-0.084L1003.021,1064.771z"/>
	<path fill="#D4ECFF" d="M1175.958,1055.357l-1.977-3.353l150.771-89.092c1.437-0.852,2.3-2.356,2.308-4.029
		c0.007-1.673-0.848-3.186-2.277-4.045l-50.058-30.738l2.037-3.315l50.039,30.731c2.604,1.559,4.163,4.326,4.151,7.383
		c-0.012,3.056-1.589,5.809-4.224,7.367L1175.958,1055.357z"/>
	<path fill="#D4ECFF" d="M1011.765,932.639l-1.938-3.376l146.938-84.605c1.521-0.879,2.429-2.452,2.429-4.209
		c-0.004-1.752-0.912-3.326-2.437-4.2l-77.767-44.668c-10.652-6.112-17.267-17.543-17.267-29.822V505.884
		c0-10.606,5.23-20.49,13.997-26.451l11.678-7.945l2.189,3.216l-11.678,7.945c-7.698,5.238-12.294,13.925-12.294,23.234v255.874
		c0,10.892,5.866,21.026,15.313,26.447l77.767,44.667c2.745,1.574,4.387,4.406,4.391,7.572c0,3.167-1.635,6.003-4.379,7.588
		L1011.765,932.639z"/>
	<path fill="#0477B7" d="M1002.04,1013.442c-1.338,0-2.638-0.684-3.36-1.924c-1.087-1.854-0.468-4.234,1.388-5.321l58.117-34.069
		c7.789-4.577,17.456-4.539,25.223,0.106l48.031,28.693c1.848,1.103,2.448,3.498,1.347,5.338c-1.106,1.848-3.502,2.448-5.338,1.346
		l-48.031-28.693c-5.326-3.187-11.952-3.201-17.293-0.076l-58.117,34.068C1003.386,1013.275,1002.709,1013.442,1002.04,1013.442z"/>
	<path fill="#D4ECFF" d="M919.62,1195.617l-323.392-186.706c-11.245-6.493-9.835-17.829,3.147-25.325l0,0
		c12.982-7.497,32.621-8.311,43.861-1.817l323.392,186.71c11.245,6.489,9.835,17.825-3.147,25.321l0,0
		C950.5,1201.297,930.861,1202.11,919.62,1195.617z"/>
	<g>
		<g>
			<g>
				<path fill="#D4ECFF" d="M1228.928,701.607c-2.414-1.392-5.014-2.604-7.721-3.688l0.08-0.008l-14.849-6.58l1.117,2.592
					c-11.252-2.238-23.466-2.379-34.821-0.368l0.691-2.882l-17.467,7.74l0.102,0.008c-2.269,0.965-4.474,1.999-6.53,3.186
					c-21.923,12.658-21.923,33.183,0.004,45.838c21.923,12.659,57.471,12.659,79.394,0.004
					C1250.852,734.79,1250.852,714.266,1228.928,701.607z"/>
				<path fill="#5793CE" d="M1207.834,713.559c-10.275,5.935-26.934,5.935-37.205,0c-10.276-5.93-10.276-15.548,0-21.478
					c10.271-5.931,26.93-5.931,37.205,0C1218.105,698.011,1218.105,707.629,1207.834,713.559z"/>
			</g>
			<g>
				<path fill="#5793CE" d="M1189.229,706.914L1189.229,706.914c-4.938,0-8.94-4.003-8.94-8.941V584.917h17.886v113.056
					C1198.174,702.911,1194.167,706.914,1189.229,706.914z"/>
				<path fill="#5793CE" d="M1195.521,589.022c-3.565,2.057-9.344,2.057-12.91,0c-3.565-2.061-3.565-5.395,0-7.455
					c3.566-2.057,9.345-2.057,12.91,0C1199.086,583.628,1199.086,586.962,1195.521,589.022z"/>
			</g>
			<path fill="#D4ECFF" d="M1189.229,588.802L1189.229,588.802c-4.002,0-7.249-3.246-7.249-7.249V475.274h14.499v106.278
				C1196.479,585.556,1193.232,588.802,1189.229,588.802z"/>
			<g>
				<path fill="#396CAA" d="M1293.474,530.966v-4.163l5.877-0.848l6.584-4.927c1.064-0.798,3.102-0.875,4.334-0.16l4.858,2.801
					l4.813-0.695v4.216l-0.02,0.004c-0.026,0.479-0.388,0.95-1.105,1.27l-15.328,6.831c-1.217,0.54-2.935,0.476-4.019-0.152
					l-5.104-2.946c-0.586-0.338-0.863-0.787-0.863-1.235L1293.474,530.966z"/>
				<path fill="#5793CE" d="M1294.104,525.686l11.83-8.85c1.064-0.798,3.102-0.874,4.334-0.16l8.823,5.094
					c1.235,0.711,1.102,1.885-0.277,2.501l-15.328,6.828c-1.217,0.543-2.935,0.479-4.019-0.148l-5.104-2.946
					C1293.279,527.377,1293.169,526.385,1294.104,525.686z"/>
				<g>
					<path fill="#D4ECFF" d="M1274.154,545.762c1.691,0,3.383-0.392,4.732-1.167l18.381-10.614c1.011-0.585,1.36-1.881,0.771-2.9
						c-0.586-1.011-1.878-1.361-2.896-0.771l-18.377,10.61c-1.364,0.787-3.858,0.787-5.227,0l-30.545-17.692
						c-1.004-0.589-2.308-0.24-2.897,0.775c-0.585,1.015-0.239,2.315,0.779,2.896l30.545,17.692
						C1270.767,545.37,1272.459,545.762,1274.154,545.762z"/>
				</g>
			</g>
			<g>
				
					<radialGradient id="SVGID_1_" cx="727.0273" cy="570.4336" r="46.8" gradientTransform="matrix(3.8927 0 0 3.8927 -1927.853 -1735.6318)" gradientUnits="userSpaceOnUse">
					<stop  offset="0" style="stop-color:#01C8EF"/>
					<stop  offset="0.0894" style="stop-color:#03BEE9"/>
					<stop  offset="0.2388" style="stop-color:#08A5D7"/>
					<stop  offset="0.4288" style="stop-color:#107BBB"/>
					<stop  offset="0.4457" style="stop-color:#1177B8"/>
					<stop  offset="1" style="stop-color:#112564"/>
				</radialGradient>
				<polygon fill="url(#SVGID_1_)" points="1097.446,506.88 1126.957,489.728 1110.421,482.262 1096.275,492.29 				"/>
				<path fill="#5793CE" d="M1286.95,481.417c-1.631-0.855-3.292-1.866-4.965-3.09l-62.884-46.085
					c-11.352-8.321-23.045-10.465-32.081-5.885c-0.235,0.122-0.438,0.285-0.665,0.415l-0.068-0.023l-86.853,50.389l7.804,2.6
					l30.416,13.792l41.379,29.355l32.655,17.327l1.482,0.315c7.614-6.413,16.137-11.917,20.813-21.266
					c8.085-14.149,30.598-18.201,43.834-29.67c1.335,0.848,2.673,1.642,4.007,2.33
					C1284.559,489.233,1285.296,485.413,1286.95,481.417z"/>
				<path fill="#396CAA" d="M1314.537,460.635c-1.35,0-2.573,0.476-3.562,1.243l-0.016-0.015l-84.989,49.195l3.105,12.708
					l3.186-1.521c-4.866,7.591-12.332,12.583-19.091,18.281l9.606,2.034l83.233-48.431c0.384-0.167,0.779-0.308,1.155-0.498
					c1.141-0.578,2.197-1.273,3.205-2.038l0.145-0.087l-0.054,0.008c6.337-4.893,9.914-13.408,9.914-24.037v-1
					C1320.376,463.254,1317.761,460.635,1314.537,460.635z"/>
				<g>
					<path fill="#EAEAEA" d="M1198.147,424.012c5.307,0.193,10.994,2.015,16.688,5.398
						C1209.142,426.026,1203.454,424.205,1198.147,424.012z"/>
					<path fill="#5793CE" d="M1236.854,515.019v-1c0-3.224-2.615-5.839-5.843-5.839c-3.224,0-5.839,2.615-5.839,5.839v1
						c0,7.808-2.482,13.544-6.813,15.738c-4.893,2.475-12.328,0.654-19.893-4.889l-62.888-46.082
						c-9.675-7.093-19.59-9.648-27.903-7.428l51.939-30.134l-60.181,34.913l7.804,2.6l30.416,13.792l41.379,29.355l32.655,17.327
						l1.482,0.315c7.614-6.413,16.137-11.917,20.813-21.266c0.806-1.41,1.786-2.695,2.854-3.919
						C1236.839,515.232,1236.854,515.129,1236.854,515.019z"/>
				</g>
				<g>
					<path fill="#D4ECFF" d="M1211.658,545.423c-6.881,0.003-14.457-2.798-21.89-8.246l-62.888-46.082
						c-7.561-5.542-14.993-7.367-19.893-4.889c-4.33,2.193-6.813,7.93-6.813,15.738c0,3.224-2.615,5.843-5.843,5.843
						c-3.224,0-5.84-2.619-5.84-5.843c0-12.366,4.817-21.9,13.211-26.158c9.032-4.573,20.729-2.433,32.08,5.885l62.888,46.085
						c7.565,5.542,15.001,7.363,19.894,4.885c4.33-2.193,6.813-7.926,6.813-15.734v-1c0-3.224,2.615-5.839,5.843-5.839
						c3.224,0,5.839,2.615,5.839,5.839v1c0,12.366-4.816,21.896-13.214,26.154C1218.725,544.644,1215.288,545.423,1211.658,545.423z
						"/>
				</g>
			</g>
		</g>
		<g>
			<g>
				<path fill="#173D7A" d="M1162.234,648.451c0,0-11.842-5.973-19.117,2.919c-7.272,8.896-17.67,29.892-17.992,44.078
					c-0.323,14.188,11.226,13.229,18.091,9.869c6.865-3.356,26.918-32.449,28.135-38.148c1.213-5.698-1.433-13.407-3.36-14.913
					C1166.059,650.747,1162.234,648.451,1162.234,648.451z"/>
				<path fill="#5793CE" d="M1164.819,645.596l0.548,12.271c0.118,2.607-1.193,5.094-3.467,6.383
					c-2.068,1.175-5.075,2.071-9.135,1.422c-8.923-1.434-9.721-3.984-10.359-16.252
					C1141.771,637.153,1164.819,645.596,1164.819,645.596z"/>
				<g>
					<path fill="#173D7A" d="M1118.879,624.859c0,0-11.842-5.977-19.118,2.919c-7.271,8.892-17.669,29.892-17.992,44.074
						c-0.323,14.188,11.226,13.229,18.092,9.873c6.865-3.36,26.922-32.449,28.135-38.152c1.212-5.698-1.434-13.403-3.36-14.913
						C1122.703,627.151,1118.879,624.859,1118.879,624.859z"/>
					<path fill="#5793CE" d="M1121.464,622.004l0.548,12.271c0.117,2.607-1.194,5.094-3.468,6.383
						c-2.067,1.175-5.071,2.071-9.135,1.418c-8.922-1.434-9.72-3.98-10.355-16.248
						C1098.415,613.561,1121.464,622.004,1121.464,622.004z"/>
					<path fill="#002DAA" d="M1227.148,396.721c-3.505-57.038-61.77,8.394-61.77,8.394l-39.878,39.087l-35.909,39.444
						c-7.014,7.706-10.275,18.106-8.918,28.435l14.525,110.612c0.719,5.463,5.391,9.492,10.899,9.446
						c1.555-0.012,3.341-0.152,5.383-0.472c12.959-2.019,12.001-14.339,12.001-14.339l-2.653-103.454l75.41-45.458
						C1196.239,468.417,1230.654,453.758,1227.148,396.721z"/>
				</g>
				<path fill="#002DAA" d="M1270.501,418.454c-3.505-57.038-61.767,8.394-61.767,8.394l-39.877,39.083l-35.913,39.448
					c-7.01,7.706-10.275,18.106-8.918,28.435l14.529,110.611c0.714,5.459,5.39,9.489,10.898,9.447
					c1.555-0.012,3.338-0.156,5.379-0.472c12.96-2.019,12.005-14.339,12.005-14.339l-2.657-103.454l75.414-45.458
					C1239.595,490.149,1274.006,475.491,1270.501,418.454z"/>
				<path fill="#FF245A" d="M1236.033,235.363c44.173,18.312,43.287,44.424,43.287,44.424s-8.652,95.729-5.698,159.658
					c1.235,26.725-141.997,28.766-120.637-42.535c25.186-84.07,15.746-152.131,27.534-162.396
					C1192.313,224.251,1224.605,230.626,1236.033,235.363z"/>
				
					<ellipse transform="matrix(0.9684 0.2494 -0.2494 0.9684 101.8932 -298.3752)" fill="#FFC2B0" cx="1228.183" cy="252.831" rx="22.784" ry="16.771"/>
				<path fill="#FFFFFF" d="M1231.536,272.154c-2.65,0-5.368-0.338-8.063-1.038c-6.329-1.631-11.826-4.999-15.487-9.488
					c-3.813-4.672-5.2-10.002-3.911-15.008c2.6-10.078,15.524-15.479,28.818-12.074c6.326,1.631,11.823,4.999,15.483,9.489
					c3.813,4.672,5.2,10.001,3.912,15.008c-1.289,5.006-5.079,8.998-10.675,11.252
					C1238.53,271.53,1235.098,272.154,1231.536,272.154z M1224.804,237.728c-8.204,0-15.058,3.816-16.64,9.948
					c-0.946,3.668,0.152,7.679,3.095,11.283c3.095,3.793,7.804,6.664,13.267,8.066c5.463,1.411,10.968,1.167,15.511-0.654
					c4.318-1.737,7.219-4.714,8.161-8.382v-0.004c0.947-3.668-0.151-7.675-3.094-11.283c-3.095-3.794-7.805-6.66-13.268-8.066
					C1229.445,238.02,1227.072,237.728,1224.804,237.728z"/>
				<path fill="#FFC2B0" d="M1218.322,233.371c0,0,0.38,1.771-0.385,15.769c-0.239,4.402,15.168,8.511,19.152,4.527
					c3.983-3.984,2.391-8.124,3.345-23.102C1241.393,215.591,1218.322,233.371,1218.322,233.371z"/>
				<path fill="#EA9C92" d="M1240.435,230.565c0,0-3.794,13.887-22.497,19.213l0.285-12.621L1240.435,230.565z"/>
				<path fill="#FFC2B0" d="M1252.284,195.284c4.702,18.182-6.227,36.729-24.405,41.432c-18.183,4.699-36.73-6.227-41.433-24.409
					c-4.698-18.179,6.227-36.73,24.409-41.429C1229.034,166.176,1247.586,177.105,1252.284,195.284z"/>
				<path fill="#EA9C92" d="M1227.176,205.042c0,0-18.723,8.021-31.682,8.112c-12.963,0.091-10.108-10.762-10.108-10.762
					l38.479-5.562L1227.176,205.042z"/>
				<path fill="#303030" d="M1191.628,207.156c0,0,16.309-6.922,30.613-4.033c3.364,0.677,6.481,2.475,8.648,5.136
					c0.707,0.871,1.601,1.661,2.615,1.893c2.535,0.574,6.69-9.952,11.621-10.191c4.931-0.24,8.219,3.254,4.178,9.724
					c-4.045,6.474-2.676,13.719-0.817,14.757c1.863,1.038,21.593-14.073,4.189-48.553c-17.407-34.479-61.618-15.909-68.495-8.922
					c0,0-7.245,6.311-13.134,0.696C1171.047,167.663,1164.443,217.127,1191.628,207.156z"/>
				<path fill="#FFC2B0" d="M1254.542,349.727v25.865c0,2.965-1.25,5.79-3.44,7.786l-53.137,48.446l6.037,9.233l70.175-50.894
					c3.273-2.376,5.387-6.029,5.809-10.055l4.744-45.108L1254.542,349.727z"/>
				<path fill="#FF245A" d="M1275.58,266.854c0,0,16.122,24.242,22.128,88.058c0,0-27.538,8.907-43.166,3.851
					C1238.914,353.707,1275.58,266.854,1275.58,266.854z"/>
				<path fill="#E50E4B" d="M1251.596,297.506c0,0-6.311,33.776-6.667,49.651c-0.1,4.364,2.565,8.303,6.667,9.789l0,0V297.506z"/>
			</g>
			<g>
				<path fill="#173D7A" d="M1237.813,465.459l-11.747-1.551l-75.813-43.771c-2.429-1.403-6.675-1.228-9.48,0.396l-53.719,31.001
					l-7.102-0.935v7.071h0.004c-0.045,0.927,0.487,1.825,1.631,2.486l85.918,49.606c2.433,1.402,6.679,1.228,9.484-0.392
					l58.505-33.769c1.577-0.909,2.364-2.083,2.319-3.186l0,0V465.459z"/>
				<path fill="#396CAA" d="M1180.847,437.799l-5.387-3.109h-59.216l-29.191,16.844l-7.102-0.935v7.071h0.004
					c-0.045,0.927,0.487,1.825,1.631,2.486l85.918,49.606c1.284,0.741,3.079,1.038,4.896,0.916L1180.847,437.799z"/>
				<path fill="#5793CE" d="M1083.1,451.014l-3.148-0.415v7.071h0.004c-0.045,0.927,0.487,1.825,1.631,2.486l1.514,0.875V451.014z"
					/>
				<path fill="#274F89" d="M1168.37,510.165c2.304,0.875,5.596,0.684,8.056-0.502v-12.028h-8.056V510.165z"/>
				<path fill="#FFFFFF" d="M1167.504,502.698l-85.918-49.605c-2.429-1.403-2.125-3.854,0.681-5.474l58.505-33.769
					c2.806-1.62,7.052-1.794,9.48-0.392l85.922,49.605c2.429,1.403,2.125,3.855-0.681,5.474l-58.505,33.765
					C1174.183,503.922,1169.937,504.101,1167.504,502.698z"/>
				<path fill="#D4ECFF" d="M1166.052,495.179l-71.441-41.246c-2.019-1.167-1.768-3.205,0.566-4.554l31.351-17.627
					c2.334-1.35,5.865-1.494,7.885-0.327l71.44,41.246c2.022,1.167,1.769,3.205-0.566,4.55l-31.351,17.631
					C1171.602,496.198,1168.074,496.346,1166.052,495.179z"/>
			</g>
			<path fill="#FFC2B0" d="M1144.094,412.223l-0.89,5.93c-0.756,5.048-0.627,10.192,0.388,15.198l1.058,5.224
				c0.597,2.946,2.927,5.234,5.888,5.771l0,0c2.308,0.422,4.49-1.201,4.752-3.536l1.418-12.674c0,0,3.243,4.25,4.81,4.25
				c1.562,0-1.753-12.693-5.296-19.874C1152.682,405.327,1144.094,412.223,1144.094,412.223z"/>
			<path fill="#FFC2B0" d="M1173.217,318.003l-9.219,18.247c-2.178,4.315-3.463,9.025-3.771,13.849l-4.007,62.413l-12.127-0.289
				l-5.504-70.088c-0.172-2.163-0.064-4.341,0.312-6.478l6.287-35.543L1173.217,318.003z"/>
			<g>
				<path fill="#173D7A" d="M1164.596,507.461l-7.204-9.405l-75.76-43.861c-2.429-1.407-4.395-5.174-4.391-8.417l0.064-62.025
					l-4.356-5.687l4.094-2.369l0.004,0.004c0.783-0.505,1.825-0.49,2.973,0.171l85.857,49.712c2.429,1.406,4.395,5.174,4.391,8.413
					l-0.072,67.548c-0.004,1.825-0.628,3.091-1.608,3.6l0,0L1164.596,507.461z"/>
				<path fill="#396CAA" d="M1112.203,471.895l-5.383-3.117l-29.545-51.32l0.03-33.704l-4.356-5.687l4.094-2.369l0.004,0.004
					c0.783-0.505,1.825-0.49,2.973,0.171l85.857,49.712c1.284,0.741,2.433,2.148,3.234,3.782L1112.203,471.895z"/>
				<path fill="#5793CE" d="M1074.885,380.591l-1.936-2.524l4.094-2.369l0.004,0.004c0.783-0.505,1.825-0.49,2.973,0.171
					l1.514,0.878L1074.885,380.591z"/>
				<path fill="#274F89" d="M1166.656,426.133c1.908,1.563,3.387,4.512,3.588,7.234l-8.39,4.843l-4.022-6.983L1166.656,426.133z"/>
				<path fill="#5793CE" d="M1161.786,427.954l-85.856-49.712c-2.43-1.407-4.402,0.083-4.406,3.322l-0.072,67.549
					c-0.004,3.243,1.962,7.01,4.391,8.413l85.86,49.712c2.426,1.407,4.398-0.08,4.402-3.322l0.072-67.549
					C1166.181,433.124,1164.215,429.36,1161.786,427.954z"/>
			</g>
			<path fill="#FFC2B0" d="M1204.002,441.057l-1.377,2.851c-1.581,3.281-4.071,6.041-7.173,7.953l-8.53,5.257
				c-2.654,1.635-6.011,1.771-8.706,0.202c-0.095-0.057-0.193-0.114-0.288-0.175c-2.711-1.699-2.958-5.588-0.727-7.88l8.91-9.165
				c0,0-5.006,3.839-6.409,2.292c-1.03-1.133,4.854-6.656,9.375-6.839c4.516-0.179,8.888-3.729,8.888-3.729L1204.002,441.057z"/>
			<path fill="#FF245A" d="M1181.405,234.382c0,0-32.67,35.547-45.85,68.161c0,0,11.173,20.125,38.517,28.024
				C1201.42,338.467,1181.405,234.382,1181.405,234.382z"/>
			<path fill="#E50E4B" d="M1167.922,328.458l5.295-51.153l-12.477,47.925C1162.965,326.39,1165.371,327.469,1167.922,328.458z"/>
			<path fill="#FFFFFF" d="M1205.876,227.209l-8.778-2.41c0,0,4.189,6.592,10.311,8.272c6.116,1.68,7.07-3.498,7.07-3.498
				L1205.876,227.209z"/>
		</g>
	</g>
	<path fill="#00ADEE" d="M978.175,206.495L629.727,5.278c-11.45-6.611-21.851-6.774-29.716-1.813l-0.015-0.08L556.274,28.71
		l29.321,5.471c-0.095,1.498-0.179,3.007-0.179,4.592v821.854c0,32.628,19.836,70.532,44.31,84.663l343.551,198.388
		c-3.129,9.815-9.785,30.457-9.785,30.457l42.755-24.797h-0.011c9.914-5.113,16.247-17.905,16.247-36.331V291.153
		C1022.484,258.525,1002.645,220.621,978.175,206.495z"/>
	<g>
		<polygon fill="#D4ECFF" points="1305.71,912.019 1253.375,881.805 1201.044,912.019 1253.375,942.233 		"/>
		<polygon fill="#E8A200" points="1253.375,914.209 1253.375,880.163 1315.902,844.063 1315.902,878.11 		"/>
		<polygon fill="#F9BF30" points="1253.375,880.163 1190.853,844.063 1190.853,878.11 1253.375,914.209 		"/>
		<polygon fill="#F9B50C" points="1315.902,844.063 1253.375,807.965 1190.853,844.063 1253.375,880.163 		"/>
	</g>
	<path fill="#FFFFFF" d="M1098.985,450.945c0,5.353-3.756,7.52-8.39,4.847c-4.634-2.676-8.39-9.185-8.39-14.533
		s3.756-7.52,8.39-4.843S1098.985,445.596,1098.985,450.945z"/>
	<path fill="#0477B7" d="M1010.799,908.658c-1.346,0-2.657-0.699-3.376-1.954c-1.075-1.862-0.433-4.242,1.43-5.314l146.938-84.605
		c1.315-0.76,1.456-2.019,1.456-2.524c0-0.505-0.145-1.76-1.46-2.517l-77.767-44.663c-11.253-6.459-18.243-18.536-18.243-31.511
		V479.688c0-11.245,5.55-21.729,14.849-28.055l11.678-7.945c1.779-1.213,4.197-0.745,5.409,1.03c1.209,1.779,0.749,4.205-1.029,5.41
		l-11.679,7.945c-7.166,4.87-11.442,12.956-11.442,21.615v255.881c0,10.195,5.493,19.685,14.336,24.759l77.767,44.664
		c3.356,1.928,5.364,5.391,5.367,9.265c0,3.869-1.999,7.336-5.356,9.271l-146.938,84.605
		C1012.126,908.491,1011.457,908.658,1010.799,908.658z"/>
	<path fill="#00ADEE" d="M585.417,860.627c0,32.628,19.836,70.532,44.31,84.663l343.551,198.388
		c-3.129,9.815-9.785,30.457-9.785,30.457l42.755-24.797h-0.011c9.914-5.113,16.247-17.905,16.247-36.331V291.153
		c0-17.023-5.432-35.453-14.073-51.217L585.417,484.151V860.627z"/>
	<path fill="#0477B7" d="M934.218,1171.968L585.771,970.752c-24.47-14.126-44.31-52.034-44.31-84.659V64.239
		c0-32.628,19.84-47.625,44.31-33.495l348.447,201.212c24.471,14.13,44.311,52.035,44.311,84.663v821.854
		C978.528,1171.098,958.688,1186.099,934.218,1171.968z"/>
	<polygon fill="#D3008D" points="599.076,288.158 572.1,269.595 561.566,235.036 551.029,257.431 541.422,252.949 541.422,271.979 
		544.517,276.811 541.422,290.542 541.422,303.63 561.566,300.958 584.748,330.799 578.616,296.499 	"/>
	<path fill="#FFFFFF" d="M927.729,1144.761L592.91,951.41c-18.19-10.5-32.936-38.673-32.936-62.922V78.309
		c0-24.253,14.746-35.399,32.936-24.9l334.819,193.347c18.187,10.503,32.933,38.676,32.933,62.926v810.179
		C960.661,1144.114,945.915,1155.261,927.729,1144.761z"/>
	<path fill="#EDEDED" d="M790.766,895.931l-164.35-94.889v-399.52l77.436,44.709c53.784,31.051,86.914,88.438,86.914,150.539
		V895.931z"/>
	<g>
		<path fill="#D4ECFF" d="M567.652,362.876l0.019,0.034c-16.585-9.88-39.634-8.664-65.089,6.033
			c-50.393,29.096-91.388,100.104-91.388,158.29v41.991v0.004l0,0l0,0l1.73,1.015l164.649,96.857l2.494-50.248l2.053-19.513
			l8.732-30.298l1-4.638l18.723-37.726l14.746-18.422l11.955-14.251l29.127-22.938l2.563-1.904l14.32-6.162l19.258-5.003h15.021
			l16.795,2.938L567.652,362.876z"/>
		<path fill="#D4ECFF" d="M588.637,751.224l5.337-3.079V556.835c-2.771,3.778-4.068,8.622-5.337,13.544V751.224z"/>
		<polygon fill="#D4ECFF" points="755.02,847.082 588.637,751.224 590.355,570.122 596.707,551.829 615.966,518.707 
			638.751,491.682 659.295,475.251 681.503,461.771 721.799,457.149 743.109,469.219 755.02,487.447 758.771,515.433 
			757.491,818.153 		"/>
		<path fill="#5793CE" d="M567.671,362.91c-13.875-8.268-32.286-8.728-52.833-0.061l169.523,97.873l18.183-4.726h15.021
			l16.795,2.938l-166.707-96.06L567.671,362.91z"/>
		<g>
			<path fill="#E9F6FF" d="M518.83,361.272c-5.276,1.946-10.697,4.47-16.248,7.671c-3.71,2.144-7.36,4.535-10.956,7.112
				l168.991,97.569l5.786-4.558l2.563-1.904l14.32-6.162l5.714-1.482L518.83,361.272z"/>
			<path fill="#FFFFFF" d="M638.706,490.876l22.991-18.103l-168.941-97.535c-7.648,5.364-15.016,11.659-21.988,18.681
				L638.706,490.876z"/>
			<path fill="#5793CE" d="M760.354,844.003l-5.334,3.079V520.645c0-54.787-38.604-77.075-86.054-49.678
				c-47.45,27.394-86.054,94.258-86.054,149.044v44.01l-5.337,3.079v-44.01c0-58.185,40.995-129.193,91.392-158.286
				c50.393-29.097,91.388-5.429,91.388,52.761V844.003z"/>
		</g>
	</g>
	<polygon fill="#AEDEED" points="461.66,496.019 452.293,534.304 456.976,596.158 445.104,589.174 429.91,555.55 443.211,513.058 	
		"/>
	<g>
		<path opacity="0.4" fill="#FFFFFF" d="M733.888,741.028c-1.008,0-2.064-0.304-3.117-0.916l-120.994-69.856
			c-3.562-2.053-6.356-7.31-6.356-11.967v-95.2c0-2.798,1.034-4.995,2.836-6.037c1.6-0.931,3.546-0.829,5.466,0.285l120.994,69.856
			c3.562,2.053,6.355,7.313,6.355,11.967v95.2c0,2.798-1.033,4.999-2.836,6.045C735.511,740.819,734.717,741.028,733.888,741.028z
			 M608.613,560.321c-0.148,0-0.289,0.034-0.41,0.099c-0.411,0.24-0.89,1.08-0.89,2.669v95.2c0,3.281,2.019,7.219,4.41,8.596
			l120.994,69.859c0.312,0.175,1.083,0.551,1.577,0.285c0.407-0.235,0.886-1.076,0.886-2.669v-95.2c0-3.28-2.019-7.219-4.409-8.595
			l-120.994-69.86C609.545,560.572,609.051,560.321,608.613,560.321z"/>
		<g>
			<path fill="#B2D3EA" d="M647.339,674.138l-0.852-0.49c-3.155-1.821-5.71-6.706-5.71-10.914V617.37c0-4.208,2.555-6.14,5.71-4.318
				l0.852,0.494c3.155,1.817,5.709,6.702,5.709,10.91v45.363C653.049,674.027,650.494,675.958,647.339,674.138z"/>
			<path fill="#B2D3EA" d="M671.676,688.188l-0.852-0.494c-3.154-1.816-5.713-6.705-5.713-10.91v-26.55
				c0-4.208,2.559-6.139,5.713-4.318l0.852,0.49c3.152,1.821,5.71,6.71,5.71,10.914v26.55
				C677.386,688.074,674.828,690.009,671.676,688.188z"/>
			<path fill="#396CAA" d="M696.01,702.238l-0.852-0.494c-3.155-1.817-5.71-6.706-5.71-10.91V627.63c0-4.204,2.555-6.135,5.71-4.314
				l0.852,0.49c3.155,1.821,5.71,6.706,5.71,10.91v63.204C701.72,702.124,699.165,704.059,696.01,702.238z"/>
		</g>
	</g>
	<g>
		<path fill="#D4ECFF" d="M427.545,1172.188c40.653,23.471,106.567,23.471,147.22-0.004c40.653-23.47,40.653-61.522,0-84.993
			s-106.563-23.471-147.216,0C386.896,1110.662,386.896,1148.718,427.545,1172.188z"/>
		<g>
			<path fill="#173D7A" d="M437.372,1097.835c-7.253,3.103-11.819,11.185-11.214,19.875c0.285,4.098,0.779,7.918,1.634,9.713
				c2.308,4.843,9.873,11.491,21.942,6.721c12.073-4.771,38.881-29.96,39.885-46.45
				C491.486,1057.068,456.467,1089.682,437.372,1097.835z"/>
			<path fill="#173D7A" d="M508.296,1148.494c0,0-2.897,17.657-1.49,20.893c1.406,3.239,9.808,10.146,22.219,8.652
				c12.412-1.494,48.123-13.807,56.076-37.338c12.328-36.487-68.929,2.737-68.929,2.737L508.296,1148.494z"/>
			<path fill="#002DAA" d="M543.19,866.196l2.764,275.668c-0.292,9.587-6.573,17.685-15.016,19.11
				c-1.045,0.179-2.163,0.319-3.361,0.422c-8.549,0.753-13.533-2.92-16.376-6.774c-2.3-3.121-3.513-7.078-3.684-11.131
				l-3.521-117.675L486.43,920.599l-24.307,186.22c-0.392,5.037-2.802,9.694-6.683,12.26c-2.676,1.775-6.311,3.151-11.082,3.007
				c-6.957-0.209-11.788-3.935-14.734-7.257c-2.334-2.631-3.566-6.253-3.516-9.968l9.633-112.045l3.585-142.916L543.19,866.196z"/>
			<path fill="#FFC2B0" d="M507.49,619.445l-4.356,25.116c0,0-0.164,8.573,9.405,10.949c9.568,2.372,12.53-3.806,12.53-3.806
				l4.326-28.287L507.49,619.445z"/>
			<path fill="#FFC2B0" d="M560.229,605.685c-6.793,21.52-27.815,34.008-46.956,27.898c-19.137-6.112-29.146-28.515-22.353-50.031
				c6.793-21.521,27.815-34.012,46.956-27.899C557.012,561.766,567.021,584.168,560.229,605.685z"/>
			<path fill="#0477B7" d="M508.627,645.022c-0.662-0.271-40.6-25.983-55.361,0.924c-24.071,43.88-6.466,94.188-15.054,203.424
				c-1.437,18.278,24.6,29.416,36.909,36.449c10.952,6.257,23.208,10.089,35.821,10.188c12.48,0.1,36.411-10.993,35.544-27.31
				c-3.996-75.037,2.638-138.286,8.766-199.661C555.252,669.036,547.592,660.794,508.627,645.022z"/>
			<path fill="#032777" d="M486.43,920.599l-24.307,186.224c-0.392,5.033-2.802,9.69-6.683,12.256
				c-0.631,0.422-1.331,0.813-2.072,1.175c5.044-3.782,19.779-160.092,22.505-177.477
				C478.599,925.378,486.43,920.599,486.43,920.599z"/>
		</g>
		<polygon fill="#FFC2B0" points="638.125,667.755 671.559,601.389 661.07,594.763 626.416,645.314 		"/>
		<polygon fill="#FFC2B0" points="417.582,597.287 433.848,523.287 446.8,523.428 441.938,584.799 		"/>
		<path fill="#0477B7" d="M555.252,669.036c0,0,37.396,14.754,69.529-25.782c2.828-3.569,8.645-3.17,10.321,0.677
			c2.889,6.646,6.508,16.682,2.118,26.102c-19.418,41.68-85.682,40.23-101.644,63.595
			C519.609,756.991,555.252,669.036,555.252,669.036z"/>
		<path fill="#0477B7" d="M483.298,635.8c0,0-30.88,2.376-35.324-24.353c-2.289-13.761-2.977-21.98-3.105-26.717
			c-0.087-3.208-2.87-5.634-6.052-5.238c-7.394,0.916-18.844,3.121-20.398,8.078c-2.319,7.401-6.679,43.694,23.82,99.382
			C462.218,723.436,483.298,635.8,483.298,635.8z"/>
		<path fill="#FFC2B0" d="M433.779,523.47l0.297-8.436c0.103-2.98,0.973-5.881,2.524-8.428l8.55-14.05l2.231-2.81
			c2.06-2.596,5.744-3.224,8.549-1.459l1.965,1.235c2.509,1.578,3.954,4.402,3.764,7.359l-4.425,12.005l5.596-1.083
			c1.087-0.213,2.136,0.509,2.33,1.597l0,0c0.167,0.928-0.338,1.844-1.208,2.193l-9.139,3.688l-8.298,11.747L433.779,523.47z"/>
		<path fill="#FFC2B0" d="M671.806,601.811l3.915-7.481c1.38-2.642,2.061-5.592,1.97-8.572l-0.49-16.441l-0.552-3.543
			c-0.51-3.277-3.402-5.642-6.709-5.497l-2.323,0.106c-2.961,0.129-5.611,1.871-6.907,4.535l-2.087,12.625l-4.326-3.707
			c-0.84-0.722-2.11-0.616-2.817,0.236l0,0c-0.604,0.726-0.616,1.771-0.03,2.505l6.12,7.721l1.585,16.084L671.806,601.811z"/>
		<path fill="#032777" d="M530.866,725.268c-3.25,14.822,16.327,126.623-5.444,167.509c10.888-4.41,21.649-13.043,21.064-24.079
			c-2.859-53.661-0.274-101.279,3.668-146.509c18.62-9.432,47.712-15.058,68.293-30.127
			C596.38,700.193,533.766,712.038,530.866,725.268z"/>
		<path fill="#FFFFFF" d="M494.269,637.925l5.543-5.694c0,0,9.123,9.321,16.453,10.937c0,0,8.819,2.497,13.13,2.714l3.569,9.843
			C532.964,655.724,503.917,653.644,494.269,637.925z"/>
		<path fill="#303030" d="M534.177,606.354c1.532-0.026,2.954-0.723,3.824-1.98c1.517-2.197,0.559-12.287,5.231-13.956
			c7.302-2.604,24.626,6.535,26.477-19.81c0.962-13.693-5.702-17.334-5.672-24.835c0,0,0.578,3.763-34.658,1.422
			c-35.232-2.342-46.69,28.944-47.522,43.846c-0.833,14.905,6.379,39.406,30.458,42.771c3.995,0.559,20.764-12.929,20.33-14.696
			c-0.433-1.768-6.763-1.669-5.847-6.816C527.559,608.007,530.174,606.43,534.177,606.354z"/>
	</g>
	<g>
		<g>
			<path fill="#EDEDED" d="M714.926,288.143l-106.46-61.466c-4.733-2.733-8.565-10.059-8.565-16.366v-79.162
				c0-6.307,3.832-9.207,8.565-6.474l106.46,61.462c4.732,2.733,8.568,10.059,8.568,16.369v79.158
				C723.494,287.976,719.658,290.872,714.926,288.143z"/>
			<path fill="#0477B7" d="M704.392,162.561l-106.46-61.466c-2.106-1.217-4.01-1.262-5.504-0.441c0-0.008,0.008-0.068,0.008-0.068
				l-10.325,5.964c0,0,4.569,1.669,7.253,2.653v77.527c0,6.311,3.835,13.636,8.568,16.369l101.754,58.748v9.097l10.436-6.01
				l-0.058-0.019c1.764-1.072,2.894-3.437,2.894-6.827v-79.162C712.957,172.62,709.121,165.29,704.392,162.561z"/>
			<path fill="#24A7FF" d="M693.877,270.625l-106.464-61.466c-4.729-2.733-8.565-10.059-8.565-16.365v-79.162
				c0-6.307,3.836-9.207,8.565-6.474l106.464,61.462c4.729,2.733,8.564,10.059,8.564,16.37v79.158
				C702.441,270.458,698.605,273.355,693.877,270.625z"/>
			<path fill="#FFFFFF" d="M693.877,168.62l-106.464-61.462c-2.688-1.555-5.06-1.236-6.63,0.441
				c1.145-0.095,2.418,0.175,3.779,0.961l106.464,61.466c4.729,2.733,8.565,10.059,8.565,16.369v79.158
				c0,2.722-0.745,4.76-1.936,6.033c2.825-0.236,4.786-2.95,4.786-7.439V184.99C702.441,178.679,698.605,171.354,693.877,168.62z"/>
		</g>
		<g>
			<path fill="#FFFFFF" d="M623.215,181.88c0,4.581-3.216,6.44-7.181,4.147c-3.969-2.289-7.185-7.861-7.185-12.442
				c0-4.581,3.216-6.436,7.185-4.147C619.999,171.73,623.215,177.299,623.215,181.88z"/>
			<path fill="#FFFFFF" d="M644.979,194.444c0,4.581-3.216,6.436-7.185,4.147c-3.969-2.292-7.185-7.861-7.185-12.442
				c0-4.581,3.216-6.436,7.185-4.147C641.763,184.294,644.979,189.863,644.979,194.444z"/>
			<path fill="#FFFFFF" d="M666.738,207.008c0,4.581-3.216,6.436-7.185,4.147c-3.965-2.292-7.181-7.862-7.181-12.442
				c0-4.581,3.216-6.436,7.181-4.147C663.522,196.858,666.738,202.427,666.738,207.008z"/>
		</g>
	</g>
	<g>
		<g>
			<path fill="#EDEDED" d="M926.782,706.005l-106.464-61.466c-4.729-2.729-8.565-10.055-8.565-16.365V450.021
				c0-6.307,3.836-9.208,8.565-6.478l106.464,61.466c4.729,2.733,8.564,10.059,8.564,16.369v178.152
				C935.347,705.838,931.512,708.738,926.782,706.005z"/>
			<path fill="#5793CE" d="M916.244,481.433l-106.46-61.466c-2.106-1.217-4.011-1.262-5.505-0.441
				c0.004-0.012,0.008-0.069,0.008-0.069l-10.324,5.965c0,0,4.572,1.669,7.257,2.653v176.521c0,6.307,3.835,13.637,8.564,16.366
				l101.758,58.748v9.097l10.432-6.007l-0.058-0.019c1.765-1.076,2.897-3.437,2.897-6.831V497.798
				C924.813,491.492,920.978,484.162,916.244,481.433z"/>
			<path fill="#D4ECFF" d="M905.729,688.488l-106.46-61.463c-4.733-2.732-8.568-10.059-8.568-16.369V432.504
				c0-6.307,3.835-9.207,8.568-6.478l106.46,61.466c4.729,2.733,8.565,10.059,8.565,16.369v178.153
				C914.295,688.321,910.459,691.222,905.729,688.488z"/>
			<path fill="#FFFFFF" d="M905.729,487.492l-106.46-61.466c-2.691-1.551-5.063-1.232-6.63,0.445
				c1.144-0.095,2.414,0.175,3.778,0.961l106.461,61.466c4.729,2.733,8.564,10.059,8.564,16.365v178.153
				c0,2.726-0.741,4.76-1.935,6.033c2.828-0.232,4.786-2.95,4.786-7.436V503.861C914.295,497.551,910.459,490.222,905.729,487.492z"
				/>
		</g>
	</g>
	<g>
		<g>
			<path fill="#EDEDED" d="M926.782,946.704l-106.464-61.463c-4.729-2.733-8.565-10.059-8.565-16.365V690.72
				c0-6.307,3.836-9.207,8.565-6.478l106.464,61.47c4.729,2.729,8.564,10.059,8.564,16.365v178.152
				C935.347,946.536,931.512,949.437,926.782,946.704z"/>
			<path fill="#0477B7" d="M916.244,722.131l-106.46-61.466c-2.106-1.217-4.011-1.262-5.505-0.441
				c0.004-0.007,0.008-0.068,0.008-0.068l-10.324,5.969c0,0,4.572,1.665,7.257,2.649v176.522c0,6.307,3.835,13.636,8.564,16.365
				l101.758,58.752v9.093l10.432-6.007l-0.058-0.019c1.765-1.076,2.897-3.437,2.897-6.831V738.497
				C924.813,732.19,920.978,724.86,916.244,722.131z"/>
			<path fill="#24A7FF" d="M905.729,929.187l-106.46-61.462c-4.733-2.733-8.568-10.06-8.568-16.366V673.202
				c0-6.307,3.835-9.207,8.568-6.478l106.46,61.47c4.729,2.729,8.565,10.059,8.565,16.365v178.153
				C914.295,929.02,910.459,931.92,905.729,929.187z"/>
			<path fill="#FFFFFF" d="M905.729,728.19l-106.46-61.466c-2.691-1.551-5.063-1.231-6.63,0.444
				c1.144-0.095,2.414,0.176,3.778,0.962l106.461,61.471c4.729,2.729,8.564,10.059,8.564,16.361v178.156
				c0,2.718-0.741,4.756-1.935,6.033c2.828-0.235,4.786-2.95,4.786-7.439V744.56C914.295,738.25,910.459,730.924,905.729,728.19z"/>
		</g>
	</g>
	<g>
		<path fill="#D4ECFF" d="M175.91,927.567c-29.239,16.882-76.646,16.878-105.884,0c-29.239-16.879-29.241-44.25-0.002-61.132
			c29.239-16.883,76.646-16.883,105.885,0C205.147,883.317,205.147,910.688,175.91,927.567z"/>
		<g>
			<path fill="#303030" d="M80.643,374.44c0,0,1.926,39.684,4.946,66.354c3.021,26.671,67.254-20.482,67.254-20.482v-30.366
				L80.643,374.44z"/>
			<g>
				<path fill="#173D7A" d="M114.856,868.199c0.964,2.41,17.607,22.672,34.25,27.735c7.236,2.201,12.1,2.49,15.29,2.11
					c3.199-0.38,5.176-3.676,4.096-6.714c-2.864-8.059-11.072-24.854-31.929-35.193
					C108.342,842.147,114.856,868.199,114.856,868.199z"/>
				<path fill="#173D7A" d="M109.308,875.981c0,0,6.271,14.711,8.2,27.013c1.178,7.505-2.94,17.251-6.332,23.714
					c-2.104,4.007-7.438,4.911-10.792,1.866c-5.438-4.934-12.362-13.507-13.507-25.819c-1.931-20.745,0-24.363,0-24.363
					L109.308,875.981z"/>
				<path fill="#002DAA" d="M69.215,625.27c0,0-2.17,26.166,0,55.11c2.173,28.944,9.943,164.3,11.39,196.863
					c0,0-0.724,9.861,18.361,7.687c19.085-2.171,17.548-13.115,17.548-13.115s26.802-0.361,27.646-16.16
					c0.844-15.795,27.453-188.656,27.453-250.803L69.215,625.27z"/>
				<g>
					<path fill="#FFC2B0" d="M181.526,489.979l13.132,20.338l45.139,54.521c0,0-1.553,5.06-7.171,6.386
						c-4.391,1.034-42.354-35.187-58.75-51.08c-4.356-4.224-5.081-10.945-1.731-16L181.526,489.979z"/>
					<linearGradient id="SVGID_2_" gradientUnits="userSpaceOnUse" x1="155.9082" y1="458.7178" x2="193.3828" y2="458.7178">
						<stop  offset="0" style="stop-color:#008DEC"/>
						<stop  offset="1" style="stop-color:#008BEC"/>
					</linearGradient>
					<path fill="url(#SVGID_2_)" d="M155.908,406.494c0,0,20.861-0.54,28.122,29.61c7.263,30.146,12.942,67.895,6.626,71.031
						c-18.958,9.416-30.956-1.601-30.956-1.601L155.908,406.494z"/>
					<linearGradient id="SVGID_3_" gradientUnits="userSpaceOnUse" x1="52.2808" y1="527.2773" x2="179.4844" y2="527.2773">
						<stop  offset="0" style="stop-color:#008DEC"/>
						<stop  offset="1" style="stop-color:#008BEC"/>
					</linearGradient>
					<path fill="url(#SVGID_3_)" d="M162.152,407.775c-3.56-1.486-7.554-1.684-11.26-0.62
						c-17.772,5.105-84.592,24.713-95.605,34.129c-12.724,10.876,19.082,71.989,18.623,92.026
						c-0.458,20.034-2.718,43.656-4.487,65.439s-4.167,33.723,13.649,42.983c17.816,9.261,48.235,9.69,71.006-7.66
						c22.769-17.35,18.639-29.222,17.692-41.816c-0.949-12.598-8.702-67.073-8.031-82.538c0,0,8.023-5.911,13.967-16.046
						c5.943-10.139-4.554-28.77-8.913-40.881s2.458-25.964,1.11-35.848C169.208,411.854,165.958,409.364,162.152,407.775z"/>
					<path fill="#FFFFFF" d="M140.79,428.611c1.41,11.005-8.687,21.368-22.553,23.144c-13.864,1.775-26.247-5.706-27.657-16.711
						c-1.409-11.009,8.688-21.368,22.552-23.147C126.998,410.121,139.379,417.606,140.79,428.611z"/>
					
						<ellipse transform="matrix(0.9919 -0.127 0.127 0.9919 -53.9214 18.1953)" fill="#FFC2B0" cx="115.685" cy="431.825" rx="18.09" ry="14.362"/>
					<path fill="#FFC2B0" d="M123.78,403.7c0,0-12.063-9.922-14.433-4.896c-2.368,5.026-4.322,26.588-4.322,26.588l23.955,6.436
						l-3.636-21.847C125.344,409.98,130.14,405.913,123.78,403.7z"/>
					<path fill="#FFC2B0" d="M161.217,380.07c-1.164,19.718-18.093,34.761-37.812,33.597c-19.72-1.167-34.761-18.095-33.596-37.813
						c1.163-19.722,18.093-34.761,37.812-33.598C147.342,343.424,162.382,360.352,161.217,380.07z"/>
					<path fill="#EA9C92" d="M107.679,405.054c-0.214,1.125-0.416,2.334-0.61,3.565c2.406,12.446,21.028,17.894,21.028,17.894
						l-2.752-16.532c0,0,2.258-1.916,1.62-3.832C119.604,403.826,110.331,401.769,107.679,405.054z"/>
					<path fill="#FFC2B0" d="M161.217,380.07c-1.164,19.718-18.093,34.761-37.812,33.597c-19.72-1.167-34.761-18.095-33.596-37.813
						c1.163-19.722,18.093-34.761,37.812-33.598C147.342,343.424,162.382,360.352,161.217,380.07z"/>
					<polygon fill="#FFC2B0" points="37.39,529.362 41.395,625.072 55.386,626.513 64.494,540.352 					"/>
					<path fill="#0477B7" d="M83.374,521.36c-0.756-3.334-6.88-6.075-7.817-10.42c-4.805-22.295-5.961-55.171-5.961-55.171
						l-3.91,44.911c4.51,13.32,8.386,25.546,8.224,32.632c-0.27,11.758-1.163,24.759-2.21,37.894l0.002,0.038
						C71.702,571.243,88.004,541.796,83.374,521.36z"/>
					<linearGradient id="SVGID_4_" gradientUnits="userSpaceOnUse" x1="33.8354" y1="497.4727" x2="70.6523" y2="497.4727">
						<stop  offset="0" style="stop-color:#008DEC"/>
						<stop  offset="1" style="stop-color:#008BEC"/>
					</linearGradient>
					<path fill="url(#SVGID_4_)" d="M57.959,439.324c0,0-11.188,4.273-17.521,38.642c-6.333,34.365-11.068,68.795,0.22,73.232
						c11.289,4.436,20.722,7.77,24.042-1.422c3.319-9.192,5.375-53.483,5.792-69.415C70.909,464.433,71.518,442.472,57.959,439.324z
						"/>
					<path fill="#FFC2B0" d="M236.448,560.854c0,0,6.06,2.228,10.439,6.999c3.592,3.916,5.562,7.234,7.133,9.576
						c3.484,5.201,6.425,16.438,4.3,17.837c-2.125,1.399-14.28-18.817-16.24-14.115c-1.959,4.703,0.018,9.051-2.496,9.12
						c-2.513,0.072-11.247-20.319-18.116-26.641C214.598,557.307,236.448,560.854,236.448,560.854z"/>
				</g>
				<path fill="#032777" d="M116.514,871.814c0,0,3.32-0.046,7.658-0.79l0,0l5.248-210.409L116.514,871.814z"/>
			</g>
			<g>
				<path fill="#FDD762" d="M96.261,758.158l-7.445-9.717l-78.297-45.333c-2.509-1.452-4.541-5.349-4.537-8.693l0.069-64.104
					l-4.503-5.877l4.231-2.448l0.004,0.004c0.81-0.521,1.885-0.506,3.069,0.178l88.734,51.374c2.509,1.452,4.541,5.349,4.537,8.693
					l-0.074,69.811c-0.004,1.886-0.65,3.197-1.661,3.726l0,0L96.261,758.158z"/>
				<path fill="#FDD762" d="M42.117,721.401l-5.563-3.22L6.018,665.144l0.033-34.833l-4.503-5.877l4.231-2.448l0.004,0.004
					c0.81-0.521,1.885-0.506,3.069,0.178l88.734,51.374c1.327,0.768,2.515,2.22,3.343,3.911L42.117,721.401z"/>
				<path fill="#FDD762" d="M3.545,627.041l-1.998-2.607l4.231-2.448l0.004,0.004c0.81-0.521,1.885-0.506,3.069,0.178l1.564,0.905
					L3.545,627.041z"/>
				<path fill="#FDD762" d="M98.392,674.107c1.969,1.615,3.499,4.66,3.707,7.474l-8.671,5.01l-4.155-7.219L98.392,674.107z"/>
				<path fill="#F9B50C" d="M93.359,675.989L4.626,624.615c-2.509-1.456-4.548,0.084-4.552,3.434L0,697.858
					c-0.006,3.35,2.026,7.242,4.537,8.694l88.732,51.373c2.511,1.456,4.548-0.083,4.552-3.433l0.076-69.811
					C97.901,681.338,95.87,677.441,93.359,675.989z"/>
			</g>
			<polygon fill="#FFFFFF" points="75.131,726.059 70.905,723.617 70.905,687.31 75.131,689.75 			"/>
			<polygon fill="#FFFFFF" points="65.258,720.356 61.031,717.919 61.031,681.611 65.258,684.052 			"/>
			<polygon fill="#FFFFFF" points="55.384,714.657 51.159,712.217 51.159,675.909 55.384,678.35 			"/>
			<path fill="#FFC2B0" d="M41.505,624.27c0,0-3.699,22.342-3.142,29.496c0.557,7.158,4.385,18.958,7.293,18.707
				c2.906-0.247,0.095-28.773,5.201-25.934c5.105,2.843,5.641,7.717,7.953,5.995c2.313-1.723-4.032-26.102-2.34-36.674
				C58.163,605.289,41.505,624.27,41.505,624.27z"/>
			<path fill="#EA9C92" d="M139.25,381.085c17.941,6.372,21.435,2.486,21.606,2.277c0.166-1.083,0.296-2.178,0.361-3.292
				c0.235-3.961-0.213-7.797-1.192-11.427l-46.549-6.284C113.476,362.359,120.826,374.539,139.25,381.085z"/>
			<path fill="#303030" d="M162.506,344.439c-4.228-3.626-19.486-21.547-46.821-17.316c-17.084,2.642-31.484,14.293-34.677,40.881
				c-2.152,17.913,4.423,35.555,16.533,48.594c0.656-0.304,1.334-0.582,1.94-0.981c6.847-4.504,7.586-6.983,7.584-7.006
				l1.513-13.568c-0.048-1.923-1.488-3.638-3.41-3.756c-1.486-0.095-3.292-0.81-5.008-3.056c-3.927-5.132-2.116-13.138,5.738-13.438
				c4.102-0.16,5.691-2.38,6.272-4.463c0.505-1.813,2.417-2.82,4.189-2.178c8.934,3.231,30.946,10.203,45.112,6.185
				C179.593,369.206,166.735,348.062,162.506,344.439z"/>
			<path fill="#FFFFFF" d="M142.124,397.241l10.941-3.007c0,0-5.223,8.215-12.849,10.313c-7.626,2.095-8.812-4.36-8.812-4.36
				L142.124,397.241z"/>
			<polygon fill="#FDD762" points="60.107,651.842 50.784,646.505 54.285,652.218 58.999,653.959 			"/>
		</g>
	</g>
	<g>
		<g>
			<path fill="#E50E4B" d="M265.874,667.098l106.838-60.805c2.114-1.202,3.117-2.825,3.163-4.524
				c0.007,0.004,0.053,0.038,0.053,0.038l0.072-11.925c0,0-3.75,3.106-5.957,4.923l-66.9-39.178
				c-5.442-3.189-13.703-3.581-18.451-0.882l-102.119,58.121l-7.85-4.596l-0.087,12.035l0.046-0.038
				c0.038,2.064,1.501,4.235,4.431,5.949l68.309,40.003C252.865,669.408,261.126,669.8,265.874,667.098z"/>
			<path fill="#FF245A" d="M177.936,603.415l106.841-60.805c4.748-2.703,13.008-2.312,18.45,0.878l68.311,40.003
				c5.443,3.189,6.006,7.96,1.258,10.663l-106.841,60.809c-4.746,2.699-13.009,2.308-18.451-0.882l-68.309-40.003
				C173.752,610.893,173.19,606.118,177.936,603.415z"/>
			<path fill="#FFFFFF" d="M265.958,654.963l106.839-60.809c2.699-1.536,3.623-3.741,2.969-5.945
				c-0.498,1.034-1.373,1.996-2.741,2.775l-106.841,60.805c-4.748,2.702-13.009,2.307-18.45-0.879l-68.309-40.003
				c-2.349-1.376-3.731-3.045-4.227-4.718c-1.226,2.555,0.125,5.619,3.999,7.889l68.309,40.003
				C252.949,657.271,261.209,657.662,265.958,654.963z"/>
		</g>
		<g>
			<path fill="#FFFFFF" d="M290.224,587.289c-3.954-2.315-3.931-6.029,0.051-8.295c3.98-2.266,10.412-2.228,14.366,0.087
				c3.952,2.315,3.929,6.029-0.051,8.295C300.608,589.642,294.176,589.604,290.224,587.289z"/>
			<path fill="#FFFFFF" d="M268.385,599.716c-3.954-2.315-3.929-6.029,0.051-8.295c3.982-2.266,10.414-2.224,14.366,0.091
				c3.954,2.315,3.931,6.025-0.051,8.291C278.771,602.073,272.338,602.031,268.385,599.716z"/>
			<path fill="#FFFFFF" d="M246.547,612.146c-3.953-2.314-3.929-6.028,0.052-8.295c3.982-2.266,10.412-2.228,14.366,0.088
				s3.931,6.029-0.051,8.295C256.931,614.5,250.5,614.462,246.547,612.146z"/>
		</g>
	</g>
	<g>
		<path fill="#D3008D" d="M868.03,752.334c0,9.907-6.953,13.921-15.532,8.968c-8.576-4.953-15.529-16.992-15.529-26.899
			c0-9.902,6.953-13.917,15.529-8.968C861.077,730.388,868.03,742.431,868.03,752.334z"/>
		<path fill="#D3008D" d="M874.504,780.332c-0.019-0.152-0.041-0.308-0.064-0.46c-0.665-4.174-4.615-7.835-7.219-6.907
			c-4.021,1.433-9.143,0.733-14.723-2.486c-5.577-3.224-10.698-8.432-14.724-14.514c-2.604-3.935-6.55-4.832-7.215-1.426
			c-0.023,0.125-0.046,0.251-0.068,0.38l-7.364,46.781l58.744,33.917L874.504,780.332z"/>
	</g>
	<g>
		<path fill="#FFFFFF" d="M868.03,752.334c0,9.907-6.953,13.921-15.532,8.968c-8.576-4.953-15.529-16.992-15.529-26.899
			c0-9.902,6.953-13.917,15.529-8.968C861.077,730.388,868.03,742.431,868.03,752.334z"/>
		<path fill="#FFFFFF" d="M874.504,780.332c-0.019-0.152-0.041-0.308-0.064-0.46c-0.665-4.174-4.615-7.835-7.219-6.907
			c-4.021,1.433-9.143,0.733-14.723-2.486c-5.577-3.224-10.698-8.432-14.724-14.514c-2.604-3.935-6.55-4.832-7.215-1.426
			c-0.023,0.125-0.046,0.251-0.068,0.38l-7.364,46.781l58.744,33.917L874.504,780.332z"/>
	</g>
	<g>
		<polygon fill="#FFFFFF" points="886.03,871.214 814.711,830.036 814.711,824.896 886.03,866.074 		"/>
		<polygon fill="#FFFFFF" points="864.495,881.242 814.711,852.499 814.711,847.355 864.495,876.103 		"/>
		<polygon fill="#FFFFFF" points="857.781,866.135 814.711,841.27 814.711,836.126 857.781,860.995 		"/>
		<polygon fill="#FFFFFF" points="886.03,882.443 864.495,870.013 864.495,864.873 886.03,877.304 		"/>
	</g>
	<g>
		<polygon fill="#5793CE" points="886.193,527.728 814.874,486.55 814.874,481.41 886.193,522.584 		"/>
		<polygon fill="#5793CE" points="864.658,537.752 814.874,509.009 814.874,503.869 864.658,532.612 		"/>
		<polygon fill="#5793CE" points="857.945,522.645 814.874,497.779 814.874,492.64 857.945,517.505 		"/>
		<polygon fill="#5793CE" points="886.193,538.957 864.658,526.522 864.658,521.383 886.193,533.813 		"/>
	</g>
	<g>
		<polygon fill="#5793CE" points="886.193,571.102 814.874,529.925 814.874,524.785 886.193,565.962 		"/>
		<polygon fill="#5793CE" points="864.658,581.13 814.874,552.388 814.874,547.244 864.658,575.987 		"/>
		<polygon fill="#5793CE" points="857.945,566.023 814.874,541.154 814.874,536.015 857.945,560.88 		"/>
		<polygon fill="#5793CE" points="886.193,582.332 864.658,569.897 864.658,564.757 886.193,577.192 		"/>
	</g>
	<g>
		<polygon fill="#5793CE" points="886.193,614.48 814.874,573.303 814.874,568.16 886.193,609.338 		"/>
		<polygon fill="#5793CE" points="864.658,624.506 814.874,595.762 814.874,590.623 864.658,619.366 		"/>
		<polygon fill="#5793CE" points="857.945,609.398 814.874,584.533 814.874,579.393 857.945,604.259 		"/>
		<polygon fill="#5793CE" points="886.193,625.711 864.658,613.275 864.658,608.136 886.193,620.567 		"/>
	</g>
	<g>
		<polygon fill="#FFFFFF" points="661.443,736.147 610.567,706.773 610.567,702.025 661.443,731.399 		"/>
		<polygon fill="#FFFFFF" points="692.976,754.353 671.25,741.808 671.25,737.06 692.976,749.604 		"/>
		<polygon fill="#FFFFFF" points="663.195,747.502 641.47,734.957 641.47,730.209 663.195,742.754 		"/>
		<polygon fill="#FFFFFF" points="710.254,774.668 671.25,752.151 671.25,747.399 710.254,769.92 		"/>
		<polygon fill="#FFFFFF" points="736.947,800.423 679.264,767.114 679.264,762.37 736.947,795.675 		"/>
		<polygon fill="#FFFFFF" points="724.053,772.296 702.328,759.755 702.328,755.003 724.053,767.548 		"/>
		<polygon fill="#FFFFFF" points="632.293,729.658 610.567,717.117 610.567,712.365 632.293,724.91 		"/>
		<polygon fill="#FFFFFF" points="669.946,761.739 610.461,727.396 610.461,722.645 669.946,756.991 		"/>
		<polygon fill="#FFFFFF" points="647.043,758.857 611.157,738.136 611.157,733.388 647.043,754.105 		"/>
	</g>
	<path fill="#F9B50C" d="M1174.974,1009.253c-1.331,0-2.627-0.684-3.356-1.916c-1.092-1.847-0.479-4.234,1.372-5.329l150.771-89.1
		c1.217-0.714,1.354-1.885,1.354-2.356s-0.126-1.643-1.335-2.364l-41.144-24.69c-1.844-1.106-2.44-3.498-1.334-5.342
		c1.106-1.84,3.494-2.444,5.341-1.334l41.144,24.69c3.217,1.924,5.125,5.314,5.113,9.07c-0.012,3.748-1.95,7.124-5.178,9.032
		l-150.771,89.1C1176.327,1009.078,1175.646,1009.253,1174.974,1009.253z"/>
	<g>
		<polygon fill="#D4ECFF" points="1204.454,1077.505 1152.119,1047.291 1099.784,1077.505 1152.119,1107.724 		"/>
		<polygon fill="#0477B7" points="1152.119,1079.694 1152.119,1045.648 1214.642,1009.55 1214.642,1043.596 		"/>
		<polygon fill="#0477B7" points="1152.119,1045.648 1089.592,1009.55 1089.592,1043.596 1152.119,1079.694 		"/>
		<polygon fill="#24A7FF" points="1214.642,1009.55 1152.119,973.451 1089.592,1009.55 1152.119,1045.648 		"/>
	</g>
	<polygon fill="#EDEDED" points="647.533,284.242 658.071,318.806 685.042,337.364 664.583,345.705 670.715,380.009 
		647.533,350.168 624.352,353.239 630.483,326.021 610.024,294.054 636.995,306.637 	"/>
	<polygon fill="#EDEDED" points="733.5,333.453 744.037,368.012 771.009,386.574 750.55,394.915 756.682,429.216 733.5,399.374 
		710.318,402.449 716.45,375.227 695.99,343.264 722.962,355.847 	"/>
	<polygon fill="#EDEDED" points="599.076,288.158 572.1,269.595 561.566,235.036 559.974,238.416 559.974,301.167 561.566,300.958 
		584.748,330.799 578.616,296.499 	"/>
	<g>
		<g>
			<g>
				<polygon fill="#E8A200" points="371.538,113.906 382.076,148.469 409.047,167.027 388.587,175.368 394.719,209.672 
					371.538,179.827 348.356,182.902 354.488,155.684 334.029,123.717 361,136.3 				"/>
				<path fill="#F9BF30" d="M321.444,130.944l12.585-7.227l19.439,9.07c0,0-0.067,13.069,0,13.381
					c0.068,0.312-8.012,0.699-8.556,0.699C344.369,146.868,321.444,130.944,321.444,130.944z"/>
				<path fill="#E8A200" d="M394.719,209.672l-12.586,7.223l-6.132-34.301c0,0,6.101-6.44,6.075-6.44
					c-0.027,0,6.862,1.167,6.862,1.167L394.719,209.672z"/>
				<polygon fill="#FDD762" points="358.951,121.132 369.489,155.691 396.46,174.254 376.001,182.595 382.133,216.896 
					358.951,187.054 335.77,190.129 341.903,162.907 321.444,130.944 348.416,143.527 				"/>
				<path fill="#FFFFFF" d="M382.133,216.896l-6.132-34.301l20.459-8.341l-26.972-18.563l-10.538-34.559l-10.536,22.395
					l-26.972-12.583l1.88,2.935l25.989,12.123l9.268-19.695l9.312,30.552l24.664,16.974l-18.658,7.603l5.774,32.293L382.133,216.896
					z"/>
				<polygon fill="#E8A200" points="358.951,121.132 371.538,113.906 382.076,148.469 369.489,155.691 				"/>
				<polygon fill="#F9BF30" points="409.047,167.027 396.46,174.254 369.489,155.691 382.076,148.469 				"/>
			</g>
			<polygon fill="#FFFFFF" points="370.116,156.562 368.198,155.456 381.794,147.545 382.076,148.469 382.969,149.084 			"/>
		</g>
		<g>
			<g>
				<polygon fill="#E8A200" points="457.504,163.116 468.042,197.675 495.014,216.238 474.554,224.578 480.686,258.879 
					457.504,229.037 434.323,232.113 440.455,204.89 419.995,172.927 446.967,185.51 				"/>
				<path fill="#F9BF30" d="M407.413,180.154l12.583-7.227l19.441,9.067c0,0-0.068,13.073,0,13.381c0.068,0.312-8.013,0.7-8.557,0.7
					C430.335,196.075,407.413,180.154,407.413,180.154z"/>
				<path fill="#E8A200" d="M480.686,258.879l-12.587,7.227l-6.131-34.301c0,0,6.101-6.439,6.075-6.439
					c-0.027,0,6.861,1.163,6.861,1.163L480.686,258.879z"/>
				<polygon fill="#FDD762" points="444.918,170.342 455.456,204.902 482.427,223.46 461.968,231.805 468.099,266.105 
					444.918,236.264 421.736,239.335 427.872,212.117 407.413,180.154 434.384,192.733 				"/>
				<path fill="#FFFFFF" d="M468.099,266.105l-6.131-34.301l20.459-8.344l-26.972-18.559l-10.538-34.563l-10.534,22.395
					l-26.971-12.583l1.878,2.938l25.991,12.119l9.268-19.696l9.31,30.553l24.668,16.974l-18.662,7.607l5.774,32.293L468.099,266.105
					z"/>
				<polygon fill="#E8A200" points="444.918,170.342 457.504,163.116 468.042,197.675 455.456,204.902 				"/>
				<polygon fill="#F9BF30" points="495.014,216.238 482.427,223.46 455.456,204.902 468.042,197.675 				"/>
			</g>
			<polygon fill="#FFFFFF" points="456.083,205.769 454.167,204.662 467.761,196.751 468.042,197.675 468.936,198.291 			"/>
		</g>
		<g>
			<g>
				<polygon fill="#E8A200" points="543.471,212.322 554.009,246.885 580.98,265.444 560.521,273.785 566.653,308.089 
					543.471,278.248 520.29,281.319 526.422,254.101 505.962,222.134 532.934,234.717 				"/>
				<path fill="#F9BF30" d="M493.379,229.36l12.583-7.227l19.441,9.07c0,0-0.068,13.069,0,13.381
					c0.068,0.308-8.014,0.699-8.557,0.699S493.379,229.36,493.379,229.36z"/>
				<path fill="#E8A200" d="M566.653,308.089l-12.587,7.223l-6.132-34.301c0,0,6.102-6.44,6.075-6.44
					c-0.026,0,6.862,1.167,6.862,1.167L566.653,308.089z"/>
				<polygon fill="#FDD762" points="530.885,219.549 541.422,254.112 568.394,272.671 547.934,281.011 554.066,315.312 
					530.885,285.47 507.703,288.546 513.839,261.323 493.379,229.36 520.351,241.943 				"/>
				<path fill="#FFFFFF" d="M554.066,315.312l-6.132-34.301l20.459-8.34l-26.971-18.563l-10.538-34.559l-10.534,22.395
					l-26.972-12.583l1.878,2.935l25.991,12.123l9.268-19.699l9.31,30.556l24.668,16.974l-18.662,7.603l5.774,32.294L554.066,315.312
					z"/>
				<polygon fill="#E8A200" points="530.885,219.549 543.471,212.322 554.009,246.885 541.422,254.112 				"/>
				<polygon fill="#F9BF30" points="580.98,265.444 568.394,272.671 541.422,254.112 554.009,246.885 				"/>
			</g>
			<polygon fill="#FFFFFF" points="542.05,254.979 540.134,253.873 553.728,245.961 554.009,246.885 554.902,247.501 			"/>
		</g>
		<g>
			<g>
				<polygon fill="#E8A200" points="629.438,261.532 639.976,296.092 666.947,314.654 646.488,322.995 652.62,357.295 
					629.438,327.454 606.257,330.529 612.392,303.307 591.933,271.344 618.904,283.927 				"/>
				<path fill="#F9BF30" d="M579.346,278.567l12.587-7.223l19.437,9.067c0,0-0.068,13.073,0,13.381c0.068,0.312-8.014,0.7-8.557,0.7
					C602.269,294.491,579.346,278.567,579.346,278.567z"/>
				<path fill="#E8A200" d="M652.62,357.295l-12.583,7.227l-6.136-34.301c0,0,6.102-6.439,6.075-6.439
					c-0.026,0,6.862,1.163,6.862,1.163L652.62,357.295z"/>
				<polygon fill="#FDD762" points="616.855,268.759 627.389,303.318 654.36,321.877 633.901,330.221 640.037,364.522 
					616.855,334.681 593.674,337.752 599.806,310.533 579.346,278.567 606.317,291.15 				"/>
				<path fill="#FFFFFF" d="M640.037,364.522l-6.136-34.301l20.459-8.34l-26.971-18.563l-10.534-34.56l-10.538,22.391
					l-26.972-12.583l1.878,2.938l25.991,12.123l9.268-19.699l9.31,30.552l24.667,16.974l-18.661,7.607l5.778,32.293L640.037,364.522
					z"/>
				<polygon fill="#E8A200" points="616.855,268.759 629.438,261.532 639.976,296.092 627.389,303.318 				"/>
				<polygon fill="#F9BF30" points="666.947,314.654 654.36,321.877 627.389,303.318 639.976,296.092 				"/>
			</g>
			<polygon fill="#FFFFFF" points="628.02,304.185 626.101,303.079 639.694,295.168 639.976,296.092 640.869,296.708 			"/>
		</g>
		<g>
			<g>
				<polygon fill="#E8A200" points="715.404,310.739 725.942,345.302 752.914,363.861 732.454,372.205 738.59,406.502 
					715.404,376.664 692.227,379.735 698.359,352.517 677.899,320.55 704.871,333.133 				"/>
				<path fill="#F9BF30" d="M665.313,327.777l12.587-7.227l19.437,9.07c0,0-0.068,13.07,0,13.381s-8.01,0.699-8.553,0.699
					C688.235,343.701,665.313,327.777,665.313,327.777z"/>
				<path fill="#E8A200" d="M738.59,406.502l-12.587,7.227l-6.132-34.301c0,0,6.098-6.44,6.071-6.44s6.861,1.167,6.861,1.167
					L738.59,406.502z"/>
				<polygon fill="#FDD762" points="702.822,317.965 713.359,352.524 740.331,371.087 719.871,379.428 726.003,413.729 
					702.822,383.887 679.641,386.962 685.772,359.74 665.313,327.777 692.284,340.36 				"/>
				<path fill="#FFFFFF" d="M726.003,413.729l-6.132-34.301l20.46-8.34l-26.972-18.559l-10.537-34.563l-10.538,22.395
					l-26.972-12.583l1.878,2.935l25.991,12.123l9.268-19.699l9.313,30.556l24.664,16.974l-18.661,7.603l5.778,32.294
					L726.003,413.729z"/>
				<polygon fill="#E8A200" points="702.822,317.965 715.404,310.739 725.942,345.302 713.359,352.524 				"/>
				<polygon fill="#F9BF30" points="752.914,363.861 740.331,371.087 713.359,352.524 725.942,345.302 				"/>
			</g>
			<polygon fill="#FFFFFF" points="713.986,353.395 712.067,352.289 725.661,344.378 725.942,345.302 726.84,345.917 			"/>
		</g>
	</g>
</g>
</svg>
